<svg width="24" height="24" viewBox="0 0 24 24" fill="none" xmlns="http://www.w3.org/2000/svg">
<g clip-path="url(#clip0_632_2013)">
<path d="M20.4 0.674805H3.60001C1.98751 0.674805 0.637512 1.9873 0.637512 3.6373V20.4373C0.637512 22.0498 1.95001 23.3623 3.60001 23.3623H20.4C22.0125 23.3623 23.325 22.0498 23.325 20.4373V3.5998C23.325 1.9873 22.0125 0.674805 20.4 0.674805ZM3.60001 2.3248H20.4C21.075 2.3248 21.6375 2.8873 21.6375 3.5998V6.5998H2.32501V3.5998C2.32501 2.9248 2.92501 2.3248 3.60001 2.3248ZM20.4 21.6748H3.60001C2.92501 21.6748 2.32501 21.1123 2.32501 20.4373V8.2873H21.6375V20.3998C21.675 21.0748 21.075 21.6748 20.4 21.6748Z" fill="#979797"/>
</g>
<defs>
<clipPath id="clip0_632_2013">
<rect width="24" height="24" fill="white"/>
</clipPath>
</defs>
</svg>
