<svg width="24" height="24" viewBox="0 0 24 24" fill="none" xmlns="http://www.w3.org/2000/svg">
<path d="M22.5 11.1753H11.7375C11.2875 11.1753 10.875 11.5503 10.875 12.0378C10.875 12.4878 11.25 12.9003 11.7375 12.9003H22.5C22.95 12.9003 23.3625 12.5253 23.3625 12.0378C23.3625 11.5503 22.95 11.1753 22.5 11.1753Z" fill="#979797"/>
<path d="M22.5 17.5503H1.50001C1.05001 17.5503 0.637512 17.9253 0.637512 18.4128C0.637512 18.9003 1.01251 19.2753 1.50001 19.2753H22.5C22.95 19.2753 23.3625 18.9003 23.3625 18.4128C23.3625 17.9253 22.95 17.5503 22.5 17.5503Z" fill="#979797"/>
<path d="M1.50001 6.4501H22.5C22.95 6.4501 23.3625 6.0751 23.3625 5.5876C23.3625 5.1001 22.9875 4.7251 22.5 4.7251H1.50001C1.05001 4.7251 0.637512 5.1001 0.637512 5.5876C0.637512 6.0751 1.05001 6.4501 1.50001 6.4501Z" fill="#979797"/>
</svg>
