<svg width="20" height="20" viewBox="0 0 20 20" fill="none" xmlns="http://www.w3.org/2000/svg">
<path d="M2.84375 1.34375C1.59375 1.34375 0.5625 2.375 0.5625 3.625C0.5625 4.875 1.5625 5.9375 2.84375 5.9375C4.125 5.9375 5.125 4.90625 5.125 3.65625C5.125 2.40625 4.09375 1.34375 2.84375 1.34375ZM2.84375 4.53125C2.34375 4.53125 1.96875 4.125 1.96875 3.65625C1.96875 3.1875 2.375 2.78125 2.84375 2.78125C3.3125 2.78125 3.71875 3.1875 3.71875 3.65625C3.71875 4.125 3.34375 4.53125 2.84375 4.53125Z" fill="#111928"/>
<path d="M2.84375 7.71875C1.59375 7.71875 0.5625 8.75 0.5625 10C0.5625 11.25 1.59375 12.2812 2.84375 12.2812C4.09375 12.2812 5.125 11.25 5.125 10C5.125 8.75 4.09375 7.71875 2.84375 7.71875ZM2.84375 10.875C2.34375 10.875 1.96875 10.4687 1.96875 10C1.96875 9.53125 2.375 9.125 2.84375 9.125C3.3125 9.125 3.71875 9.53125 3.71875 10C3.71875 10.4687 3.34375 10.875 2.84375 10.875Z" fill="#111928"/>
<path d="M2.84375 14.0625C1.59375 14.0625 0.5625 15.0937 0.5625 16.3437C0.5625 17.5937 1.59375 18.625 2.84375 18.625C4.09375 18.625 5.125 17.5937 5.125 16.3437C5.125 15.0937 4.09375 14.0625 2.84375 14.0625ZM2.84375 17.25C2.34375 17.25 1.96875 16.8438 1.96875 16.375C1.96875 15.9063 2.375 15.5 2.84375 15.5C3.3125 15.5 3.71875 15.9063 3.71875 16.375C3.71875 16.8438 3.34375 17.25 2.84375 17.25Z" fill="#111928"/>
<path d="M7.625 4.34375H18.75C19.125 4.34375 19.4688 4.03125 19.4688 3.625C19.4688 3.21875 19.1563 2.90625 18.75 2.90625H7.625C7.25 2.90625 6.90625 3.21875 6.90625 3.625C6.90625 4.03125 7.21875 4.34375 7.625 4.34375Z" fill="#111928"/>
<path d="M18.75 9.3125H7.625C7.25 9.3125 6.90625 9.625 6.90625 10.0312C6.90625 10.4062 7.21875 10.75 7.625 10.75H18.75C19.125 10.75 19.4688 10.4375 19.4688 10.0312C19.4688 9.625 19.125 9.3125 18.75 9.3125Z" fill="#111928"/>
<path d="M18.75 15.6562H7.625C7.25 15.6562 6.90625 15.9688 6.90625 16.375C6.90625 16.7813 7.21875 17.0938 7.625 17.0938H18.75C19.125 17.0938 19.4688 16.7813 19.4688 16.375C19.4688 15.9688 19.125 15.6562 18.75 15.6562Z" fill="#111928"/>
</svg>
