<svg width="585" height="550" viewBox="0 0 585 550" fill="none" xmlns="http://www.w3.org/2000/svg">
<mask id="mask0_644_4210" style="mask-type:alpha" maskUnits="userSpaceOnUse" x="0" y="0" width="585" height="550">
<path d="M0 0H577C581.418 0 585 3.58172 585 8V542C585 546.418 581.418 550 577 550H0V0Z" fill="#3056D3"/>
</mask>
<g mask="url(#mask0_644_4210)">
<path d="M0 0H577C581.418 0 585 3.58172 585 8V542C585 546.418 581.418 550 577 550H0V0Z" fill="#3758F9"/>
<circle cx="167.5" cy="107.5" r="247.5" fill="url(#paint0_linear_644_4210)"/>
<circle cx="457.5" cy="447.5" r="42.5" transform="rotate(-90 457.5 447.5)" fill="url(#paint1_linear_644_4210)"/>
<circle cy="177" r="177" fill="url(#paint2_linear_644_4210)"/>
<path d="M57.0085 420V399.636H60.6974V408.257H70.1335V399.636H73.8324V420H70.1335V411.349H60.6974V420H57.0085ZM84.4467 420.298C82.9155 420.298 81.593 419.98 80.4794 419.344C79.3724 418.701 78.5206 417.793 77.924 416.619C77.3274 415.439 77.0291 414.051 77.0291 412.453C77.0291 410.882 77.3274 409.503 77.924 408.317C78.5272 407.124 79.3691 406.196 80.4496 405.533C81.5301 404.863 82.7995 404.528 84.2578 404.528C85.1991 404.528 86.0874 404.681 86.9226 404.986C87.7644 405.284 88.5069 405.748 89.1499 406.378C89.7995 407.008 90.3099 407.81 90.6811 408.784C91.0523 409.752 91.2379 410.905 91.2379 412.244V413.348H78.7195V410.922H87.7876C87.781 410.232 87.6319 409.619 87.3402 409.082C87.0485 408.539 86.6409 408.111 86.1172 407.8C85.6001 407.488 84.9969 407.332 84.3075 407.332C83.5717 407.332 82.9254 407.511 82.3686 407.869C81.8118 408.221 81.3776 408.685 81.0661 409.261C80.7611 409.831 80.6054 410.458 80.5987 411.141V413.259C80.5987 414.147 80.7611 414.909 81.0859 415.545C81.4107 416.175 81.8648 416.659 82.4482 416.997C83.0315 417.329 83.7143 417.494 84.4964 417.494C85.0201 417.494 85.4941 417.421 85.9183 417.276C86.3426 417.123 86.7105 416.901 87.022 416.609C87.3336 416.318 87.5689 415.956 87.728 415.526L91.0888 415.903C90.8767 416.792 90.4723 417.567 89.8757 418.23C89.2857 418.886 88.5301 419.397 87.6087 419.761C86.6873 420.119 85.6333 420.298 84.4467 420.298ZM96.0827 425.727C95.5922 425.727 95.1381 425.688 94.7205 425.608C94.3095 425.535 93.9814 425.449 93.7362 425.349L94.5714 422.545C95.0951 422.698 95.5624 422.771 95.9734 422.764C96.3844 422.758 96.7456 422.628 97.0572 422.376C97.3754 422.131 97.6438 421.72 97.8626 421.143L98.1708 420.318L92.6325 404.727H96.4506L99.9705 416.261H100.13L103.659 404.727H107.488L101.373 421.849C101.087 422.658 100.71 423.351 100.239 423.928C99.7683 424.511 99.1916 424.955 98.5089 425.26C97.8327 425.571 97.024 425.727 96.0827 425.727ZM61.294 454L55.5469 433.636H59.5142L63.1832 448.601H63.3722L67.2898 433.636H70.8991L74.8267 448.611H75.0057L78.6747 433.636H82.642L76.8949 454H73.2557L69.179 439.712H69.0199L64.9332 454H61.294ZM90.2436 454.298C88.7124 454.298 87.3899 453.98 86.2763 453.344C85.1693 452.701 84.3175 451.793 83.7209 450.619C83.1243 449.439 82.826 448.051 82.826 446.453C82.826 444.882 83.1243 443.503 83.7209 442.317C84.3241 441.124 85.166 440.196 86.2464 439.533C87.3269 438.863 88.5964 438.528 90.0547 438.528C90.996 438.528 91.8842 438.681 92.7195 438.986C93.5613 439.284 94.3037 439.748 94.9467 440.378C95.5964 441.008 96.1068 441.81 96.478 442.784C96.8492 443.752 97.0348 444.905 97.0348 446.244V447.348H84.5163V444.922H93.5845C93.5779 444.232 93.4287 443.619 93.1371 443.082C92.8454 442.539 92.4377 442.111 91.9141 441.8C91.397 441.488 90.7938 441.332 90.1044 441.332C89.3686 441.332 88.7223 441.511 88.1655 441.869C87.6087 442.221 87.1745 442.685 86.8629 443.261C86.558 443.831 86.4022 444.458 86.3956 445.141V447.259C86.3956 448.147 86.558 448.909 86.8828 449.545C87.2076 450.175 87.6617 450.659 88.245 450.997C88.8284 451.329 89.5111 451.494 90.2933 451.494C90.817 451.494 91.291 451.421 91.7152 451.276C92.1394 451.123 92.5073 450.901 92.8189 450.609C93.1304 450.318 93.3658 449.956 93.5249 449.526L96.8857 449.903C96.6735 450.792 96.2692 451.567 95.6726 452.23C95.0826 452.886 94.3269 453.397 93.4055 453.761C92.4841 454.119 91.4302 454.298 90.2436 454.298ZM103.679 433.636V454H100.08V433.636H103.679ZM114.043 454.298C112.518 454.298 111.209 453.964 110.115 453.294C109.028 452.625 108.189 451.7 107.599 450.52C107.016 449.333 106.724 447.968 106.724 446.423C106.724 444.872 107.023 443.503 107.619 442.317C108.216 441.124 109.058 440.196 110.145 439.533C111.239 438.863 112.531 438.528 114.023 438.528C115.262 438.528 116.359 438.757 117.314 439.214C118.275 439.665 119.041 440.305 119.611 441.134C120.181 441.955 120.506 442.917 120.585 444.017H117.145C117.006 443.281 116.674 442.668 116.151 442.178C115.634 441.68 114.941 441.432 114.072 441.432C113.337 441.432 112.69 441.631 112.134 442.028C111.577 442.42 111.143 442.983 110.831 443.719C110.526 444.455 110.374 445.336 110.374 446.364C110.374 447.404 110.526 448.299 110.831 449.048C111.136 449.791 111.563 450.364 112.114 450.768C112.67 451.166 113.323 451.365 114.072 451.365C114.603 451.365 115.077 451.266 115.494 451.067C115.919 450.861 116.273 450.566 116.558 450.182C116.843 449.797 117.039 449.33 117.145 448.78H120.585C120.499 449.86 120.181 450.818 119.631 451.653C119.08 452.482 118.331 453.132 117.384 453.602C116.436 454.066 115.322 454.298 114.043 454.298ZM130.203 454.298C128.711 454.298 127.419 453.97 126.325 453.314C125.231 452.658 124.383 451.74 123.779 450.56C123.183 449.38 122.885 448.001 122.885 446.423C122.885 444.846 123.183 443.464 123.779 442.277C124.383 441.09 125.231 440.169 126.325 439.513C127.419 438.857 128.711 438.528 130.203 438.528C131.694 438.528 132.987 438.857 134.081 439.513C135.174 440.169 136.02 441.09 136.616 442.277C137.219 443.464 137.521 444.846 137.521 446.423C137.521 448.001 137.219 449.38 136.616 450.56C136.02 451.74 135.174 452.658 134.081 453.314C132.987 453.97 131.694 454.298 130.203 454.298ZM130.223 451.415C131.031 451.415 131.708 451.193 132.251 450.749C132.795 450.298 133.199 449.695 133.464 448.939C133.736 448.183 133.872 447.341 133.872 446.413C133.872 445.479 133.736 444.634 133.464 443.878C133.199 443.116 132.795 442.509 132.251 442.058C131.708 441.607 131.031 441.382 130.223 441.382C129.394 441.382 128.705 441.607 128.154 442.058C127.611 442.509 127.203 443.116 126.931 443.878C126.666 444.634 126.534 445.479 126.534 446.413C126.534 447.341 126.666 448.183 126.931 448.939C127.203 449.695 127.611 450.298 128.154 450.749C128.705 451.193 129.394 451.415 130.223 451.415ZM140.576 454V438.727H144.016V441.322H144.195C144.513 440.447 145.04 439.765 145.776 439.274C146.512 438.777 147.39 438.528 148.411 438.528C149.445 438.528 150.317 438.78 151.026 439.284C151.742 439.781 152.246 440.461 152.538 441.322H152.697C153.035 440.474 153.605 439.798 154.407 439.294C155.216 438.784 156.174 438.528 157.281 438.528C158.686 438.528 159.833 438.973 160.721 439.861C161.609 440.749 162.053 442.045 162.053 443.749V454H158.444V444.305C158.444 443.357 158.192 442.665 157.688 442.227C157.184 441.783 156.568 441.561 155.839 441.561C154.97 441.561 154.291 441.833 153.8 442.376C153.317 442.913 153.075 443.613 153.075 444.474V454H149.545V444.156C149.545 443.367 149.306 442.738 148.829 442.267C148.358 441.796 147.742 441.561 146.979 441.561C146.462 441.561 145.992 441.694 145.567 441.959C145.143 442.217 144.805 442.585 144.553 443.062C144.301 443.533 144.175 444.083 144.175 444.713V454H140.576ZM172.466 454.298C170.935 454.298 169.613 453.98 168.499 453.344C167.392 452.701 166.54 451.793 165.944 450.619C165.347 449.439 165.049 448.051 165.049 446.453C165.049 444.882 165.347 443.503 165.944 442.317C166.547 441.124 167.389 440.196 168.469 439.533C169.55 438.863 170.819 438.528 172.277 438.528C173.219 438.528 174.107 438.681 174.942 438.986C175.784 439.284 176.526 439.748 177.169 440.378C177.819 441.008 178.329 441.81 178.701 442.784C179.072 443.752 179.257 444.905 179.257 446.244V447.348H166.739V444.922H175.807C175.801 444.232 175.651 443.619 175.36 443.082C175.068 442.539 174.66 442.111 174.137 441.8C173.62 441.488 173.016 441.332 172.327 441.332C171.591 441.332 170.945 441.511 170.388 441.869C169.831 442.221 169.397 442.685 169.086 443.261C168.781 443.831 168.625 444.458 168.618 445.141V447.259C168.618 448.147 168.781 448.909 169.105 449.545C169.43 450.175 169.884 450.659 170.468 450.997C171.051 451.329 171.734 451.494 172.516 451.494C173.04 451.494 173.514 451.421 173.938 451.276C174.362 451.123 174.73 450.901 175.042 450.609C175.353 450.318 175.588 449.956 175.748 449.526L179.108 449.903C178.896 450.792 178.492 451.567 177.895 452.23C177.305 452.886 176.55 453.397 175.628 453.761C174.707 454.119 173.653 454.298 172.466 454.298ZM57.0085 488V467.636H64.804C66.2756 467.636 67.4986 467.868 68.473 468.332C69.4541 468.79 70.1866 469.416 70.6705 470.212C71.161 471.007 71.4062 471.909 71.4062 472.916C71.4062 473.745 71.2472 474.454 70.929 475.044C70.6108 475.627 70.1832 476.101 69.6463 476.466C69.1094 476.83 68.5095 477.092 67.8466 477.251V477.45C68.5691 477.49 69.2618 477.712 69.9247 478.116C70.5942 478.514 71.1411 479.078 71.5653 479.807C71.9896 480.536 72.2017 481.418 72.2017 482.452C72.2017 483.506 71.9465 484.454 71.4361 485.295C70.9257 486.131 70.1567 486.79 69.1293 487.274C68.1018 487.758 66.8092 488 65.2514 488H57.0085ZM60.6974 484.918H64.6648C66.0038 484.918 66.9683 484.662 67.5582 484.152C68.1548 483.635 68.4531 482.972 68.4531 482.163C68.4531 481.56 68.304 481.017 68.0057 480.533C67.7074 480.042 67.2831 479.658 66.733 479.379C66.1828 479.094 65.5265 478.952 64.7642 478.952H60.6974V484.918ZM60.6974 476.297H64.3466C64.983 476.297 65.5563 476.181 66.0668 475.949C66.5772 475.71 66.9782 475.375 67.2699 474.945C67.5682 474.507 67.7173 473.99 67.7173 473.393C67.7173 472.605 67.4389 471.955 66.8821 471.445C66.3319 470.934 65.5133 470.679 64.4261 470.679H60.6974V476.297ZM79.6467 488.308C78.6789 488.308 77.8072 488.136 77.0316 487.791C76.2627 487.44 75.6528 486.923 75.2021 486.24C74.7579 485.557 74.5359 484.715 74.5359 483.714C74.5359 482.853 74.695 482.14 75.0131 481.577C75.3313 481.013 75.7655 480.562 76.3157 480.224C76.8659 479.886 77.4857 479.631 78.1751 479.459C78.8711 479.28 79.5903 479.151 80.3327 479.071C81.2276 478.978 81.9535 478.895 82.5103 478.822C83.0671 478.743 83.4715 478.624 83.7234 478.464C83.9819 478.299 84.1112 478.044 84.1112 477.699V477.639C84.1112 476.89 83.8891 476.31 83.445 475.899C83.0008 475.488 82.3612 475.283 81.5259 475.283C80.6443 475.283 79.945 475.475 79.4279 475.859C78.9175 476.244 78.5728 476.698 78.3938 477.222L75.033 476.744C75.2982 475.816 75.7357 475.041 76.3455 474.418C76.9554 473.788 77.7011 473.317 78.5827 473.006C79.4644 472.688 80.4388 472.528 81.506 472.528C82.2418 472.528 82.9743 472.615 83.7035 472.787C84.4326 472.959 85.0988 473.244 85.7021 473.642C86.3053 474.033 86.7892 474.567 87.1538 475.243C87.525 475.919 87.7106 476.764 87.7106 477.778V488H84.2504V485.902H84.131C83.9123 486.326 83.604 486.724 83.2063 487.095C82.8152 487.46 82.3214 487.755 81.7248 487.98C81.1348 488.199 80.4421 488.308 79.6467 488.308ZM80.5813 485.663C81.3039 485.663 81.9303 485.521 82.4606 485.236C82.9909 484.944 83.3986 484.56 83.6836 484.082C83.9753 483.605 84.1211 483.085 84.1211 482.521V480.722C84.0084 480.814 83.8162 480.901 83.5444 480.98C83.2792 481.06 82.9809 481.129 82.6495 481.189C82.3181 481.249 81.9899 481.302 81.6651 481.348C81.3403 481.394 81.0586 481.434 80.82 481.467C80.283 481.54 79.8024 481.66 79.3782 481.825C78.954 481.991 78.6192 482.223 78.3739 482.521C78.1287 482.813 78.006 483.191 78.006 483.655C78.006 484.318 78.248 484.818 78.7319 485.156C79.2158 485.494 79.8323 485.663 80.5813 485.663ZM97.9918 488.298C96.4672 488.298 95.158 487.964 94.0643 487.294C92.9772 486.625 92.1386 485.7 91.5487 484.52C90.9653 483.333 90.6737 481.968 90.6737 480.423C90.6737 478.872 90.9719 477.503 91.5685 476.317C92.1651 475.124 93.007 474.196 94.0941 473.533C95.1879 472.863 96.4805 472.528 97.9719 472.528C99.2115 472.528 100.309 472.757 101.263 473.214C102.224 473.665 102.99 474.305 103.56 475.134C104.13 475.955 104.455 476.917 104.534 478.017H101.094C100.955 477.281 100.623 476.668 100.1 476.178C99.5827 475.68 98.89 475.432 98.0217 475.432C97.2859 475.432 96.6396 475.631 96.0827 476.028C95.5259 476.42 95.0917 476.983 94.7802 477.719C94.4753 478.455 94.3228 479.336 94.3228 480.364C94.3228 481.404 94.4753 482.299 94.7802 483.048C95.0851 483.791 95.5127 484.364 96.0629 484.768C96.6197 485.166 97.2726 485.365 98.0217 485.365C98.552 485.365 99.0259 485.266 99.4435 485.067C99.8678 484.861 100.222 484.566 100.507 484.182C100.792 483.797 100.988 483.33 101.094 482.78H104.534C104.448 483.86 104.13 484.818 103.58 485.653C103.03 486.482 102.281 487.132 101.333 487.602C100.385 488.066 99.2712 488.298 97.9918 488.298ZM110.771 483.207L110.761 478.862H111.338L116.827 472.727H121.033L114.281 480.244H113.536L110.771 483.207ZM107.49 488V467.636H111.089V488H107.49ZM117.075 488L112.104 481.05L114.53 478.514L121.381 488H117.075Z" fill="white"/>
</g>
<defs>
<linearGradient id="paint0_linear_644_4210" x1="167.5" y1="-140" x2="167.5" y2="355" gradientUnits="userSpaceOnUse">
<stop offset="0.177083" stop-color="white" stop-opacity="0.16"/>
<stop offset="1" stop-color="white" stop-opacity="0"/>
</linearGradient>
<linearGradient id="paint1_linear_644_4210" x1="457.5" y1="405" x2="457.5" y2="490" gradientUnits="userSpaceOnUse">
<stop offset="0.177083" stop-color="white" stop-opacity="0.16"/>
<stop offset="1" stop-color="white" stop-opacity="0"/>
</linearGradient>
<linearGradient id="paint2_linear_644_4210" x1="0" y1="0" x2="0" y2="354" gradientUnits="userSpaceOnUse">
<stop offset="0.177083" stop-color="white" stop-opacity="0.2"/>
<stop offset="1" stop-color="white" stop-opacity="0"/>
</linearGradient>
</defs>
</svg>
