<svg width="20" height="20" viewBox="0 0 20 20" fill="none" xmlns="http://www.w3.org/2000/svg">
<path d="M10 11.5C12.5938 11.5 14.6875 9.40625 14.6875 6.8125C14.6875 4.21875 12.5938 2.125 10 2.125C7.40625 2.125 5.3125 4.21875 5.3125 6.8125C5.3125 9.40625 7.40625 11.5 10 11.5ZM10 3.53125C11.8125 3.53125 13.2812 5 13.2812 6.8125C13.2812 8.625 11.8125 10.0938 10 10.0938C8.1875 10.0938 6.71875 8.625 6.71875 6.8125C6.71875 5 8.1875 3.53125 10 3.53125Z" fill="#111928"/>
<path d="M19.2188 16.625C16.6563 14.4688 13.4063 13.2812 10 13.2812C6.59375 13.2812 3.34375 14.4688 0.781249 16.625C0.499999 16.875 0.437499 17.3125 0.687499 17.625C0.937499 17.9063 1.375 17.9688 1.6875 17.7188C4 15.75 6.9375 14.6875 10 14.6875C13.0625 14.6875 16 15.75 18.2813 17.6875C18.4063 17.8125 18.5625 17.8438 18.75 17.8438C18.9375 17.8438 19.1563 17.75 19.2813 17.5938C19.5313 17.3125 19.5 16.875 19.2188 16.625Z" fill="#111928"/>
</svg>
