<svg width="16" height="12" viewBox="0 0 16 12" fill="none" xmlns="http://www.w3.org/2000/svg">
<g id="Group">
<path id="Vector" d="M6.25834 6.00029C6.25834 5.03439 7.03411 4.25863 8.00001 4.25863C8.96592 4.25863 9.74168 5.03439 9.74168 6.00029C9.74168 6.9662 8.96592 7.74196 8.00001 7.74196C7.03411 7.74196 6.25834 6.9662 6.25834 6.00029ZM6.71668 6.00029C6.71668 6.70939 7.29092 7.28363 8.00001 7.28363C8.70911 7.28363 9.28334 6.70939 9.28334 6.00029C9.28334 5.2912 8.70911 4.71696 8.00001 4.71696C7.29092 4.71696 6.71668 5.2912 6.71668 6.00029Z" fill="#6B7280" stroke="#6B7280" stroke-width="0.666667"/>
<path id="Vector_2" d="M14.6504 6.43796L14.6631 6.41933L14.6731 6.39917C14.7951 6.15533 14.7951 5.84487 14.6731 5.60103L14.6631 5.58086L14.6504 5.56224C13.7218 4.20126 12.7766 3.21574 11.6953 2.57295C10.6095 1.92743 9.41068 1.64176 8 1.64176C6.58932 1.64176 5.39046 1.92743 4.30466 2.57295C3.22345 3.21574 2.27816 4.20126 1.34965 5.56224L1.34963 5.56223L1.34765 5.5652C1.17301 5.82716 1.17301 6.17303 1.34765 6.435L1.34763 6.43501L1.34965 6.43796C2.27816 7.79893 3.22345 8.78445 4.30466 9.42724C5.39046 10.0728 6.58932 10.3584 8 10.3584C9.41068 10.3584 10.6095 10.0728 11.6953 9.42724C12.7766 8.78445 13.7218 7.79893 14.6504 6.43796ZM8 1.18343C9.88299 1.18343 11.2854 1.7007 12.3883 2.46473C13.4973 3.23293 14.3195 4.26158 15.0228 5.31018C15.2955 5.71946 15.3009 6.24961 15.0213 6.69219C14.318 7.72812 13.4961 8.75574 12.3878 9.52643C11.2844 10.2937 9.88211 10.8168 8 10.8168C6.11789 10.8168 4.71558 10.2937 3.61219 9.52643C2.50285 8.75498 1.68039 7.7261 0.976641 6.68913C0.702075 6.27633 0.702231 5.723 0.977108 5.31036C1.68036 4.2617 2.50268 3.23297 3.61169 2.46473C4.71463 1.7007 6.11701 1.18343 8 1.18343Z" fill="#6B7280" stroke="#6B7280" stroke-width="0.666667"/>
</g>
</svg>
