<svg width="24" height="24" viewBox="0 0 24 24" fill="none" xmlns="http://www.w3.org/2000/svg">
<path d="M2.21251 21.0375C1.98751 21.0375 1.76251 21 1.53751 20.8875C0.975012 20.625 0.637512 20.1 0.637512 19.4625V5.32502C0.637512 4.05002 1.68751 2.96252 3.00001 2.96252H21C22.275 2.96252 23.3625 4.01252 23.3625 5.32502V15.675C23.3625 16.95 22.3125 18.0375 21 18.0375H6.41251L3.22501 20.6625C2.92501 20.8875 2.58751 21.0375 2.21251 21.0375ZM3.00001 4.65002C2.62501 4.65002 2.32501 4.95002 2.32501 5.32502V19.2L5.55001 16.5375C5.70001 16.425 5.88751 16.35 6.07501 16.35H21C21.375 16.35 21.675 16.05 21.675 15.675V5.32502C21.675 4.95002 21.375 4.65002 21 4.65002H3.00001Z" fill="#111928"/>
</svg>
