<svg width="24" height="24" viewBox="0 0 24 24" fill="none" xmlns="http://www.w3.org/2000/svg">
<path d="M11.9999 13.0001C12.5522 13.0001 12.9999 12.5523 12.9999 12.0001C12.9999 11.4478 12.5522 11.0001 11.9999 11.0001C11.4477 11.0001 10.9999 11.4478 10.9999 12.0001C10.9999 12.5523 11.4477 13.0001 11.9999 13.0001Z" fill="black"/>
<path d="M16 13.0001C16.5523 13.0001 17 12.5523 17 12.0001C17 11.4478 16.5523 11.0001 16 11.0001C15.4477 11.0001 15 11.4478 15 12.0001C15 12.5523 15.4477 13.0001 16 13.0001Z" fill="black"/>
<path d="M8.00006 13.0001C8.55235 13.0001 9.00006 12.5523 9.00006 12.0001C9.00006 11.4478 8.55235 11.0001 8.00006 11.0001C7.44778 11.0001 7.00006 11.4478 7.00006 12.0001C7.00006 12.5523 7.44778 13.0001 8.00006 13.0001Z" fill="black"/>
<path fill-rule="evenodd" clip-rule="evenodd" d="M4.99994 4H18.9999C20.6568 4 21.9999 5.34315 21.9999 7V17C21.9999 18.6569 20.6568 20 18.9999 20H8.54994C8.35693 19.9926 8.16591 20.0412 7.99994 20.14L3.50994 22.86C3.35558 22.9516 3.17942 22.9999 2.99994 23C2.82815 22.9995 2.65939 22.9547 2.50994 22.87C2.19545 22.6932 2.00056 22.3608 1.99994 22V7C1.99994 5.34315 3.34308 4 4.99994 4ZM19.0001 18C19.5524 18 20.0001 17.5522 20.0001 17V6.99996C20.0001 6.44767 19.5524 5.99996 19.0001 5.99996H5.00011C4.44782 5.99996 4.00011 6.44767 4.00011 6.99996V20.23L7.00011 18.43C7.468 18.1482 8.00393 17.9995 8.55011 18H19.0001Z" fill="black"/>
</svg>
