<svg width="24" height="24" viewBox="0 0 24 24" fill="none" xmlns="http://www.w3.org/2000/svg">
<path d="M9.82503 23.325C9.60003 23.325 9.37503 23.25 9.15003 23.1375C8.77503 22.9125 8.58753 22.5375 8.58753 22.125V10.2L2.02503 2.58751C1.76253 2.21251 1.68753 1.72501 1.87503 1.31251C2.06253 0.900012 2.51253 0.637512 3.00003 0.637512H21C21.4875 0.637512 21.9375 0.937512 22.125 1.38751C22.3125 1.83751 22.2375 2.28751 21.9 2.66251L15.45 10.1625V18.9C15.45 19.125 15.375 19.4625 15.0375 19.8L14.9625 19.875L10.4625 23.2125C10.275 23.2875 10.05 23.325 9.82503 23.325ZM10.0125 9.22501C10.2 9.45001 10.3125 9.78751 10.3125 10.0125V21.225L13.8 18.6375V10.0125C13.8 9.82501 13.8 9.48751 14.1 9.18751L19.95 2.36251H4.05003L10.0125 9.22501ZM8.70003 10.3125L8.73753 10.35L8.70003 10.3125Z" fill="#111928"/>
</svg>
