<svg width="24" height="24" viewBox="0 0 24 24" fill="none" xmlns="http://www.w3.org/2000/svg">
<g clip-path="url(#clip0_613_1975)">
<path d="M20.4 0.674988H3.60001C1.98751 0.674988 0.637512 1.98749 0.637512 3.63749V20.4375C0.637512 22.05 1.95001 23.3625 3.60001 23.3625H20.4C22.0125 23.3625 23.325 22.05 23.325 20.4375V3.59999C23.325 1.98749 22.0125 0.674988 20.4 0.674988ZM3.60001 2.32499H20.4C21.075 2.32499 21.6375 2.88749 21.6375 3.59999V6.59999H2.32501V3.59999C2.32501 2.92499 2.92501 2.32499 3.60001 2.32499ZM20.4 21.675H3.60001C2.92501 21.675 2.32501 21.1125 2.32501 20.4375V8.28749H21.6375V20.4C21.675 21.075 21.075 21.675 20.4 21.675Z" fill="#111928"/>
</g>
<defs>
<clipPath id="clip0_613_1975">
<rect width="24" height="24" fill="white"/>
</clipPath>
</defs>
</svg>
