<svg width="24" height="24" viewBox="0 0 24 24" fill="none" xmlns="http://www.w3.org/2000/svg">
<path d="M22.5 9.86251C22.05 9.86251 21.6375 10.2375 21.6375 10.725V17.775C21.6375 19.2375 20.55 20.4 19.2 20.4H4.80001C3.41251 20.4 2.36251 19.2375 2.36251 17.775V10.6875C2.36251 10.2375 1.98751 9.82501 1.50001 9.82501C1.01251 9.82501 0.637512 10.2 0.637512 10.6875V17.7375C0.637512 20.1 2.47501 22.05 4.76251 22.05H19.2C21.4875 22.05 23.325 20.1375 23.325 17.7375V10.6875C23.3625 10.2375 22.95 9.86251 22.5 9.86251Z" fill="#111928"/>
<path d="M11.4 15.45C11.55 15.6 11.775 15.7125 12 15.7125C12.225 15.7125 12.4125 15.6375 12.6 15.45L17.175 10.9125C17.5125 10.575 17.5125 10.05 17.175 9.71251C16.8375 9.37501 16.3125 9.37501 15.975 9.71251L12.8625 12.7875V2.81251C12.8625 2.36251 12.4875 1.95001 12 1.95001C11.55 1.95001 11.1375 2.32501 11.1375 2.81251V12.8625L8.02502 9.75001C7.68752 9.41251 7.16252 9.41251 6.82502 9.75001C6.48752 10.0875 6.48752 10.6125 6.82502 10.95L11.4 15.45Z" fill="#111928"/>
</svg>
