<svg width="24" height="24" viewBox="0 0 24 24" fill="none" xmlns="http://www.w3.org/2000/svg">
<path d="M22.5 11.175H11.7375C11.2875 11.175 10.875 11.55 10.875 12.0375C10.875 12.4875 11.25 12.9 11.7375 12.9H22.5C22.95 12.9 23.3625 12.525 23.3625 12.0375C23.3625 11.55 22.95 11.175 22.5 11.175Z" fill="#111928"/>
<path d="M22.5 17.55H1.50001C1.05001 17.55 0.637512 17.925 0.637512 18.4125C0.637512 18.9 1.01251 19.275 1.50001 19.275H22.5C22.95 19.275 23.3625 18.9 23.3625 18.4125C23.3625 17.925 22.95 17.55 22.5 17.55Z" fill="#111928"/>
<path d="M1.50001 6.44998H22.5C22.95 6.44998 23.3625 6.07498 23.3625 5.58748C23.3625 5.09998 22.9875 4.72498 22.5 4.72498H1.50001C1.05001 4.72498 0.637512 5.09998 0.637512 5.58748C0.637512 6.07498 1.05001 6.44998 1.50001 6.44998Z" fill="#111928"/>
</svg>
